<svg width="400" height="68" viewBox="0 0 400 68" fill="none" xmlns="http://www.w3.org/2000/svg">
<path d="M331.428 65.8767V1.29749H375.246C380.237 1.29749 384.562 1.99618 388.222 3.39356C391.948 4.72441 394.843 6.85376 396.906 9.78162C398.969 12.6429 400 16.336 400 20.8609C400 23.9218 399.468 26.517 398.403 28.6463C397.338 30.7757 395.841 32.5058 393.911 33.8366C392.048 35.1675 389.886 36.1989 387.423 36.9309C384.961 37.5963 382.333 38.0288 379.538 38.2284L378.141 37.4299C382.799 37.4965 386.625 37.8957 389.619 38.6277C392.614 39.2931 394.843 40.5574 396.307 42.4206C397.837 44.2172 398.603 46.9122 398.603 50.5055V65.8767H385.327V51.4038C385.327 48.9417 384.895 47.0453 384.03 45.7144C383.165 44.317 381.601 43.3522 379.339 42.8198C377.143 42.2875 373.949 42.0213 369.757 42.0213H344.703V65.8767H331.428ZM344.703 31.6407H375.246C378.973 31.6407 381.801 30.7424 383.73 28.9458C385.727 27.1491 386.725 24.7204 386.725 21.6594C386.725 18.7316 385.727 16.5024 383.73 14.9719C381.801 13.4414 378.973 12.6762 375.246 12.6762H344.703V31.6407Z" fill="#E94463"/>
<path d="M283.726 1.29749C290.979 1.29749 297.034 2.16253 301.892 3.89263C306.75 5.62273 310.609 7.98498 313.47 10.9794C316.398 13.9072 318.461 17.3009 319.659 21.1603C320.923 25.0198 321.555 29.0789 321.555 33.3376C321.555 37.5963 320.857 41.6886 319.459 45.6146C318.128 49.5406 315.966 53.0341 312.971 56.095C310.043 59.0894 306.151 61.4849 301.293 63.2816C296.502 65.0117 290.646 65.8767 283.726 65.8767H246.795V1.29749H283.726ZM260.07 54.498H283.427C288.218 54.498 292.177 53.9324 295.304 52.8012C298.498 51.6034 301.027 50.0064 302.89 48.0101C304.753 46.0139 306.084 43.7514 306.883 41.2228C307.681 38.6942 308.08 36.0658 308.08 33.3376C308.08 30.6093 307.681 28.0142 306.883 25.5521C306.084 23.0901 304.753 20.8942 302.89 18.9645C301.027 17.0347 298.498 15.5043 295.304 14.373C292.177 13.2418 288.218 12.6762 283.427 12.6762H260.07V54.498Z" fill="#CD3A55"/>
<path d="M225.397 52.7014L221.205 54.3982V1.29749H234.481V65.8767H221.205L169.003 14.8721L173.195 13.1753V65.8767H159.92V1.29749H173.195L225.397 52.7014Z" fill="#AE364C"/>
<path d="M109.85 67.1744C101.266 67.1744 93.9129 65.8436 87.791 63.1819C81.7356 60.4536 77.0777 56.5942 73.8171 51.6035C70.6231 46.6128 69.0261 40.624 69.0261 33.6371C69.0261 26.5836 70.6231 20.5616 73.8171 15.5709C77.0777 10.5802 81.7356 6.75404 87.791 4.09235C93.9129 1.36412 101.266 0 109.85 0C118.5 0 125.853 1.36412 131.908 4.09235C137.964 6.75404 142.589 10.5802 145.783 15.5709C149.043 20.5616 150.673 26.5836 150.673 33.6371C150.673 40.624 149.043 46.6128 145.783 51.6035C142.589 56.5942 137.964 60.4536 131.908 63.1819C125.853 65.8436 118.5 67.1744 109.85 67.1744ZM109.85 55.6959C115.173 55.6959 119.831 54.8974 123.824 53.3003C127.883 51.7033 131.043 49.2745 133.306 46.014C135.635 42.7534 136.799 38.6278 136.799 33.6371C136.799 28.6464 135.635 24.5208 133.306 21.2602C131.043 17.9997 127.883 15.5709 123.824 13.9739C119.831 12.3103 115.173 11.4785 109.85 11.4785C104.593 11.4785 99.9017 12.3103 95.776 13.9739C91.6504 15.5709 88.4231 17.9997 86.0941 21.2602C83.7652 24.5208 82.6007 28.6464 82.6007 33.6371C82.6007 38.6278 83.7652 42.7534 86.0941 46.014C88.4231 49.2745 91.6504 51.7033 95.776 53.3003C99.9017 54.8974 104.593 55.6959 109.85 55.6959Z" fill="#962D40"/>
<path d="M0.0332711 44.1175H13.5081C13.7742 46.38 14.8056 48.4428 16.6023 50.3059C18.4655 52.1026 20.8943 53.5332 23.8887 54.5979C26.8831 55.5961 30.2434 56.0951 33.9698 56.0951C37.3635 56.0951 40.1582 55.7291 42.3541 54.9972C44.55 54.2652 46.1803 53.2338 47.245 51.903C48.3097 50.5721 48.842 48.9751 48.842 47.1119C48.842 45.3153 48.1766 43.9512 46.8457 43.0196C45.5149 42.0214 43.4188 41.2229 40.5575 40.624C37.6962 39.9586 33.9365 39.2932 29.2786 38.6278C25.6188 38.0954 22.1586 37.3635 18.898 36.4319C15.6374 35.4338 12.7428 34.1694 10.2142 32.639C7.75217 31.1085 5.78918 29.2453 4.32525 27.0494C2.92786 24.787 2.22916 22.1253 2.22916 19.0644C2.22916 15.2714 3.29384 11.9443 5.42319 9.08302C7.61909 6.2217 10.8464 3.99253 15.1051 2.39552C19.3638 0.798507 24.5874 0 30.7758 0C40.0917 0 47.245 1.99627 52.2357 5.9888C57.2929 9.9148 59.7549 15.338 59.6218 22.2584H46.6461C46.3799 18.3324 44.7164 15.5043 41.6554 13.7742C38.661 12.0441 34.8681 11.1791 30.2767 11.1791C26.018 11.1791 22.4913 11.8112 19.6965 13.0756C16.9683 14.3399 15.6042 16.5025 15.6042 19.5634C15.6042 20.7612 15.9369 21.8259 16.6023 22.7575C17.2677 23.6225 18.3989 24.3877 19.9959 25.0532C21.593 25.7186 23.7556 26.3507 26.4838 26.9496C29.212 27.5485 32.6057 28.1474 36.6648 28.7463C40.4577 29.2786 43.8846 30.0106 46.9455 30.9421C50.073 31.8072 52.7347 32.9717 54.9306 34.4356C57.1931 35.833 58.9232 37.6296 60.1209 39.8255C61.3187 42.0214 61.9176 44.7164 61.9176 47.9104C61.9176 51.8364 60.8862 55.2633 58.8233 58.1912C56.8271 61.0525 53.6996 63.2817 49.4409 64.8787C45.2487 66.4757 39.7923 67.2742 33.0715 67.2742C28.2805 67.2742 24.055 66.7752 20.3952 65.777C16.7354 64.7123 13.5746 63.315 10.9129 61.5849C8.25124 59.8548 6.08862 57.9583 4.42506 55.8955C2.7615 53.8327 1.56374 51.7699 0.831778 49.7071C0.166356 47.6443 -0.0998134 45.7811 0.0332711 44.1175Z" fill="#762030"/>
</svg>
